<svg xmlns="http://www.w3.org/2000/svg" viewBox="0 0 704.28 324.76"><defs><style>.cls-1{fill:#fff;}</style></defs><title>logo nidosRecurso 1</title><g id="Capa_2" data-name="Capa 2"><g id="Layer_1" data-name="Layer 1"><path class="cls-1" d="M458.25,86.06c0-.29,1.37,1.79,1.37,1.79,4.63-1.4,6.42-5.89,7.05-10.91a48.68,48.68,0,0,0-6.55-3.23C463.83,85.12,458.51,85.11,458.25,86.06Z"/><path class="cls-1" d="M560.63,113.12c1.69-1.23,3.38-2.56,5.07-4.06l.1-.07.38-.38c1.71-1.54,3.4-3.18,5.09-5l9.09-9,4.37-4.41s2.17-2.13-2-1.67-14.49,1.65-14.49,1.65l-.36-7.23a2.44,2.44,0,0,0-.81-1.71,2.49,2.49,0,0,0-1.79-.62l-5.81.34s.23-2.16.92-9.76-1.34-6.46-1.34-6.46l-22.8,22.91,10.45-31.1c-15,9.43-29.12-5.29-29.12-5.29-2.42,8.73-5.26,19-8.36,29.14l-.16-.52a177,177,0,0,0-13-32.59c-6.64,8.21-13.56,15.77-20,23.88a207.42,207.42,0,0,1,6.61,21.08,87.65,87.65,0,1,0,77.92,20.89Zm-105.58,94c-5.44,2-12.22-3-15.14-11S439,179.93,444.46,178s12.23,3,15.15,11S460.49,205.15,455.05,207.12ZM497.21,64.56c-1,.43-2.37-.45-3-2s-.34-3.12.69-3.55,2.38.45,3,2S498.24,64.12,497.21,64.56Zm5.07,10.7c-1.06.31-2.3-.73-2.75-2.33s0-3.13,1.11-3.44,2.3.74,2.76,2.33S503.35,75,502.28,75.26Z"/><path class="cls-1" d="M320.79,90h-73.2V265.19h73.66c48.73,0,82.82-38.43,82.82-89.68C404.07,125,367.92,90,320.79,90ZM325,191.14a13.32,13.32,0,1,1,13.32-13.31A13.31,13.31,0,0,1,325,191.14Z"/><path class="cls-1" d="M14.19,315.11c-.58,0-.15-1-.91-1a.79.79,0,0,0-.54.24,7.35,7.35,0,0,1-4.87,1.54c-4.54,0-7.87-2.12-7.87-6.95,0-10.42,13.32-6,13.32-11.19,0-2.27-2.32-3.72-4.39-3.72a8.56,8.56,0,0,0-5.35,1.79.92.92,0,0,1-.49.19A5.57,5.57,0,0,1,1,293.64a.71.71,0,0,1,.19-.44,11.32,11.32,0,0,1,7.72-2.94c4.54,0,8.4,2.55,8.4,7.43v16.89c0,.34-.15.53-.49.53Zm-1.54-11.68-.29.05c-1.36.29-2.71.58-4.06.92-2.12.53-4,1.78-4,4.2,0,2.26,1.74,3.37,3.87,3.37,3.28,0,5.16-2.46,5.16-5.59v-2.13a.74.74,0,0,0-.72-.82"/><path class="cls-1" d="M28.61,291.85c0-.53.24-.77.78-.77h2.36a.74.74,0,0,1,.82.82V294c0,.48.24.78.72.78a.69.69,0,0,0,.58-.34,6.84,6.84,0,0,1,6-4.2c.48,0,.78.24.78.72v2.61a.69.69,0,0,1-.78.77,7.76,7.76,0,0,0-7.33,7.58v12.35a.74.74,0,0,1-.82.82H29.39c-.54,0-.78-.29-.78-.82Z"/><path class="cls-1" d="M49.94,291.08h2.55c.53,0,.78-.24.78-.77v-5a.69.69,0,0,1,.77-.78H56.5c.48,0,.72.29.72.78v5c0,.53.24.77.72.77h5.22c.53,0,.82.24.82.72v1.74c0,.48-.29.72-.82.72H57.94c-.48,0-.72.24-.72.78v12.49c0,3.23,1.88,4.78,5.89,4.78a.72.72,0,0,1,.78.77v2a.73.73,0,0,1-.78.82c-6.08,0-9.84-2.65-9.84-8.35V295.08c0-.58-.25-.82-.78-.82H49.94c-.53,0-.83-.24-.83-.72v-1.69c0-.53.3-.77.83-.77"/><path class="cls-1" d="M85.84,309.66c.28-.44.43-.58.91-.58h2.37c.57,0,.72.24.72.58a1,1,0,0,1,0,.38c-1,4-3.86,5.84-8.59,5.84s-8.58-2.65-8.58-8.35V298.9a8.37,8.37,0,0,1,8.54-8.64c5.45,0,8.63,3.66,8.63,8.64v1.88a2.58,2.58,0,0,1-2.65,2.75H77.82c-1.15,0-1.25.63-1.25,1.5v2.31a4.55,4.55,0,0,0,4.73,4.78,4.8,4.8,0,0,0,4.54-2.46m-8-9h6.66a1.09,1.09,0,0,0,1.21-1.2v-.92c0-2.46-1.45-4.68-4.54-4.68s-4.53,2.41-4.53,4.92v.58a1.2,1.2,0,0,0,1.2,1.3"/><path class="cls-1" d="M126.8,309.66c.29-.44.44-.58.92-.58h2.36c.58,0,.72.24.72.58a1.23,1.23,0,0,1,0,.38c-1,4-3.86,5.84-8.59,5.84s-8.59-2.65-8.59-8.35V298.9a8.37,8.37,0,0,1,8.54-8.64c5.45,0,8.64,3.66,8.64,8.64v1.88a2.59,2.59,0,0,1-2.66,2.75h-9.31c-1.16,0-1.26.63-1.26,1.5v2.31a4.55,4.55,0,0,0,4.73,4.78,4.79,4.79,0,0,0,4.54-2.46m-8-9h6.65a1.09,1.09,0,0,0,1.21-1.2v-.92c0-2.46-1.45-4.68-4.53-4.68s-4.54,2.41-4.54,4.92v.58a1.21,1.21,0,0,0,1.21,1.3"/><path class="cls-1" d="M145,298.85v15.49c0,.53-.25.77-.78.77h-2.65c-.53,0-.78-.24-.78-.77V291.8c0-.48.25-.72.78-.72h2.31c.54,0,.78.24.78.72a.44.44,0,0,0,.48.49,1.72,1.72,0,0,0,.73-.34,6.8,6.8,0,0,1,4.43-1.64c5.65,0,8.16,3.71,8.16,8.54v15.49a.67.67,0,0,1-.77.77h-2.56a.77.77,0,0,1-.78-.77V298.9c0-2.71-1.49-4.64-4.58-4.64a4.43,4.43,0,0,0-4.77,4.59"/><path class="cls-1" d="M189.85,314.29a1.59,1.59,0,0,1-.24,0c-.19.09-.29.19-.29.34V324a.64.64,0,0,1-.72.72h-2.51a.63.63,0,0,1-.72-.72V291.85c0-.53.23-.77.72-.77h2.51a.76.76,0,0,1,.53.15c.14.19,0,.91.68.91.23,0,.43-.19.62-.29a7.71,7.71,0,0,1,4.44-1.59c5.6,0,8.73,3.66,8.73,8.44v8.74c0,5.21-3.61,8.44-8.87,8.44a7.65,7.65,0,0,1-4.54-1.45.7.7,0,0,0-.34-.14m4.63-2.32c2.71,0,5.17-1.3,5.17-5.3v-7.58a4.84,4.84,0,0,0-5.17-4.87,5.05,5.05,0,0,0-5.16,4.87v7.63c0,3.52,2.22,5.25,5.16,5.25"/><path class="cls-1" d="M214.22,291.85c0-.53.24-.77.77-.77h2.37a.74.74,0,0,1,.82.82V294c0,.48.24.78.72.78a.69.69,0,0,0,.58-.34,6.82,6.82,0,0,1,6-4.2.67.67,0,0,1,.77.72v2.61a.69.69,0,0,1-.77.77,7.76,7.76,0,0,0-7.33,7.58v12.35a.74.74,0,0,1-.82.82H215c-.53,0-.77-.29-.77-.82Z"/><path class="cls-1" d="M235.49,283.5a2.41,2.41,0,0,1,2.71-2.65,2.7,2.7,0,1,1-2.71,2.65m3.86,31.61h-2.46a.64.64,0,0,1-.72-.73V291.85a.67.67,0,0,1,.72-.77h2.46a.64.64,0,0,1,.73.72v22.58a.64.64,0,0,1-.73.73"/><path class="cls-1" d="M255.37,298.9v15.44a.71.71,0,0,1-.77.77h-2.41a.69.69,0,0,1-.77-.77V291.8c0-.48.24-.72.77-.72h2.07c.49,0,.77.24.77.72a.38.38,0,0,0,.44.43.89.89,0,0,0,.63-.28,6.67,6.67,0,0,1,9.41.53l.34.29a1,1,0,0,0,1.15,0,9.15,9.15,0,0,1,5.94-2.51c5.11,0,8.06,3.09,8.06,8.2v15.88a.68.68,0,0,1-.73.77h-2.46a.67.67,0,0,1-.72-.77V298.85c0-2.41-1.4-4.63-4.35-4.63a4.47,4.47,0,0,0-4.58,4.63v15.49a.68.68,0,0,1-.73.77H265a.71.71,0,0,1-.77-.77v-15.4c0-2.5-1.54-4.72-4.34-4.72a4.49,4.49,0,0,0-4.54,4.68"/><path class="cls-1" d="M304.78,309.66c.29-.44.43-.58.92-.58h2.36c.58,0,.72.24.72.58a1.23,1.23,0,0,1,0,.38c-1,4-3.86,5.84-8.59,5.84s-8.59-2.65-8.59-8.35V298.9a8.37,8.37,0,0,1,8.54-8.64c5.45,0,8.64,3.66,8.64,8.64v1.88a2.59,2.59,0,0,1-2.66,2.75h-9.31c-1.16,0-1.26.63-1.26,1.5v2.31a4.55,4.55,0,0,0,4.74,4.78,4.78,4.78,0,0,0,4.53-2.46m-8-9h6.65a1.09,1.09,0,0,0,1.21-1.2v-.92c0-2.46-1.45-4.68-4.53-4.68s-4.54,2.41-4.54,4.92v.58a1.21,1.21,0,0,0,1.21,1.3"/><path class="cls-1" d="M318.82,291.85c0-.53.24-.77.77-.77H322a.74.74,0,0,1,.83.82V294c0,.48.24.78.72.78a.69.69,0,0,0,.58-.34,6.82,6.82,0,0,1,6-4.2.67.67,0,0,1,.77.72v2.61a.69.69,0,0,1-.77.77,7.76,7.76,0,0,0-7.33,7.58v12.35a.74.74,0,0,1-.83.82h-2.36c-.53,0-.77-.29-.77-.82Z"/><path class="cls-1" d="M354,315.11c-.58,0-.14-1-.92-1a.83.83,0,0,0-.53.24,7.32,7.32,0,0,1-4.87,1.54c-4.54,0-7.87-2.12-7.87-6.95,0-10.42,13.32-6,13.32-11.19,0-2.27-2.31-3.72-4.39-3.72a8.58,8.58,0,0,0-5.35,1.79.92.92,0,0,1-.49.19,5.64,5.64,0,0,1-2.12-2.36.77.77,0,0,1,.19-.44,11.34,11.34,0,0,1,7.72-2.94c4.54,0,8.4,2.55,8.4,7.43v16.89c0,.34-.15.53-.48.53Zm-1.54-11.68-.29.05c-1.35.29-2.7.58-4.06.92-2.12.53-4,1.78-4,4.2,0,2.26,1.75,3.37,3.87,3.37,3.28,0,5.17-2.46,5.17-5.59v-2.13a.74.74,0,0,0-.73-.82"/><path class="cls-1" d="M382.22,283.5a2.4,2.4,0,0,1,2.7-2.65,2.44,2.44,0,0,1,2.74,2.65,2.72,2.72,0,1,1-5.44,0m3.86,31.61h-2.47a.64.64,0,0,1-.72-.73V291.85a.67.67,0,0,1,.72-.77h2.47a.64.64,0,0,1,.72.72v22.58a.64.64,0,0,1-.72.73"/><path class="cls-1" d="M402.33,298.85v15.49c0,.53-.24.77-.77.77h-2.65c-.53,0-.77-.24-.77-.77V291.8c0-.48.24-.72.77-.72h2.31c.54,0,.77.24.77.72a.44.44,0,0,0,.49.49,1.76,1.76,0,0,0,.72-.34,6.85,6.85,0,0,1,4.44-1.64c5.65,0,8.16,3.71,8.16,8.54v15.49c0,.53-.24.77-.77.77h-2.56a.76.76,0,0,1-.77-.77V298.9c0-2.71-1.5-4.64-4.59-4.64a4.43,4.43,0,0,0-4.78,4.59"/><path class="cls-1" d="M433.7,290.4c0,.48.19.73.63.73h4.57a.64.64,0,0,1,.73.72v1.83a.64.64,0,0,1-.73.73h-4.57c-.44,0-.63.24-.63.72v19.25c0,.49-.3.73-.83.73h-2.36c-.53,0-.82-.24-.82-.73V295.13c0-.48-.19-.72-.67-.72h-3.09a.64.64,0,0,1-.73-.73v-1.83a.64.64,0,0,1,.73-.72H429c.48,0,.67-.25.67-.73v-2.94c.05-5.5,3.62-8.59,9-8.59h.38c.58,0,.82.29.82.67v2.18c0,.38-.24.72-.82.72h-.38c-3.23,0-5,1.93-5,5Z"/><path class="cls-1" d="M462,315.11c-.59,0-.15-1-.92-1a.79.79,0,0,0-.53.24,7.34,7.34,0,0,1-4.87,1.54c-4.54,0-7.87-2.12-7.87-6.95,0-10.42,13.32-6,13.32-11.19,0-2.27-2.32-3.72-4.39-3.72a8.61,8.61,0,0,0-5.36,1.79.92.92,0,0,1-.48.19,5.64,5.64,0,0,1-2.12-2.36.71.71,0,0,1,.19-.44,11.34,11.34,0,0,1,7.72-2.94c4.54,0,8.4,2.55,8.4,7.43v16.89c0,.34-.15.53-.49.53Zm-1.55-11.68-.29.05c-1.35.29-2.7.58-4.05.92-2.13.53-3.95,1.78-3.95,4.2,0,2.26,1.73,3.37,3.85,3.37,3.29,0,5.17-2.46,5.17-5.59v-2.13a.74.74,0,0,0-.73-.82"/><path class="cls-1" d="M480.59,298.85v15.49c0,.53-.24.77-.77.77h-2.66a.67.67,0,0,1-.77-.77V291.8c0-.48.25-.72.77-.72h2.32c.53,0,.77.24.77.72a.44.44,0,0,0,.49.49,1.76,1.76,0,0,0,.72-.34,6.85,6.85,0,0,1,4.44-1.64c5.64,0,8.15,3.71,8.15,8.54v15.49c0,.53-.24.77-.77.77h-2.56a.76.76,0,0,1-.77-.77V298.9c0-2.71-1.5-4.64-4.58-4.64a4.43,4.43,0,0,0-4.78,4.59"/><path class="cls-1" d="M521.36,299.52H518.8c-.43,0-.72-.19-.72-.62,0-2.51-1.4-4.73-4.59-4.73a4.53,4.53,0,0,0-4.73,4.73v8.39a4.51,4.51,0,0,0,4.79,4.68c3.18,0,4.53-2,4.53-4.63,0-.43.29-.62.72-.62h2.56c.44,0,.73.19.73.62,0,5.89-3.48,8.54-8.54,8.54-5.7,0-8.89-3.62-8.89-8.35v-8.78c0-4.68,3-8.44,8.68-8.44,5.51,0,8.75,3.23,8.75,8.59,0,.43-.29.62-.73.62"/><path class="cls-1" d="M532,283.5a2.4,2.4,0,0,1,2.69-2.65A2.7,2.7,0,1,1,532,283.5m3.85,31.61h-2.46a.64.64,0,0,1-.72-.73V291.85a.67.67,0,0,1,.72-.77h2.46a.64.64,0,0,1,.72.72v22.58a.64.64,0,0,1-.72.73"/><path class="cls-1" d="M561.16,315.11c-.58,0-.14-1-.91-1a.79.79,0,0,0-.53.24,7.38,7.38,0,0,1-4.88,1.54c-4.53,0-7.86-2.12-7.86-6.95,0-10.42,13.31-6,13.31-11.19,0-2.27-2.31-3.72-4.39-3.72a8.63,8.63,0,0,0-5.36,1.79.89.89,0,0,1-.48.19,5.64,5.64,0,0,1-2.12-2.36.77.77,0,0,1,.19-.44,11.36,11.36,0,0,1,7.73-2.94c4.53,0,8.39,2.55,8.39,7.43v16.89c0,.34-.14.53-.48.53Zm-1.54-11.68-.29.05c-1.35.29-2.7.58-4.05.92-2.13.53-4,1.78-4,4.2,0,2.26,1.73,3.37,3.85,3.37,3.29,0,5.17-2.46,5.17-5.59v-2.13a.74.74,0,0,0-.72-.82"/><path class="cls-1" d="M407.26,252.21a1.46,1.46,0,0,1-1.38-1,1.44,1.44,0,0,1,.71-1.7l39.62-20.74a1.45,1.45,0,0,1,1.41.05,1.43,1.43,0,0,1,.69,1.23v15.78a1.44,1.44,0,0,1-1.26,1.43l-39.61,4.95Zm38.18-19.8-30.47,16,30.47-3.81Z"/><polygon class="cls-1" points="430.35 198.39 446.88 230.16 404.51 252.2 430.35 198.39"/><path class="cls-1" d="M509.29,261.69c-9.46-.21-16.86,5.77-19.14,14.93-.76,3,3.88,4.28,4.63,1.28,1.78-7.13,7.13-11.56,14.51-11.4C512.39,266.58,512.39,261.76,509.29,261.69Z"/><path class="cls-1" d="M527.52,257.46c-12.18-.28-21.7,7.42-24.65,19.21-1,3.88,5,5.53,6,1.65,2.28-9.18,9.16-14.88,18.67-14.67C531.51,263.74,531.51,257.55,527.52,257.46Z"/><path class="cls-1" d="M56.62,264.71H0V89.94H56.62l59.71,48.65V89.94h55.25V264.71H115L56.62,215.36Z"/><path class="cls-1" d="M181.33,264.71V152.39h56V264.71Z"/><path class="cls-1" d="M209.22,89.17a27.55,27.55,0,0,1,27.84,27.35,28.13,28.13,0,0,1-28.33,28.09c-15,0-27.11-12.07-27.11-27.6A27.76,27.76,0,0,1,209.22,89.17Z"/><path class="cls-1" d="M559.16,2.39c-7.9-6.45-26.47,1.42-33.71,8.85-8.62,8.87-14.5,26-4.78,36.56,0,0,9.83,11.05,25.15,4.5,6.2-2.65,11.19-8.68,7.73-28.59C550.14,4.05,555.28,3.58,559.16,2.39ZM551,40.54a1.43,1.43,0,0,1-1.39,1.08,1.47,1.47,0,0,1-.36,0,1.43,1.43,0,0,1-1-1.75c1.35-5.31,0-12.39-1.31-18a1.43,1.43,0,0,1,2.79-.67C551.11,27.1,552.52,34.62,551,40.54Z"/><path class="cls-1" d="M479.28,24c-6.66-4.3-14-7.3-20.85-1.62-13.67,11.42-3.18,36.36-.48,42.48.93,2.13,1.64,4,2.17,5.62a48.68,48.68,0,0,1,6.55,3.23c.69-5.53,0-11.71.05-15.16.08-3.78,1.24-7,3.91-2.85A57.49,57.49,0,0,1,475.28,66L494.12,43C491.15,35.16,484.25,27.2,479.28,24Zm9.78,18.11a1.44,1.44,0,0,1-2-.43c-5.88-9.15-12.63-14.94-18.5-15.9a8.23,8.23,0,0,0-6.73,1.6,1.43,1.43,0,1,1-1.79-2.24,11.12,11.12,0,0,1,9-2.2c6.78,1.11,14,7.21,20.46,17.18A1.44,1.44,0,0,1,489.06,42.11Z"/><polygon class="cls-1" points="555.01 76.36 555 76.36 555.01 76.36 555.01 76.36"/><path class="cls-1" d="M594.81,70.13c-5-.69-10.19-2.06-13.93-5.71-3.15-3.08-3.92-5.7-4.46-12l-12.2,5-.4,5.15h0l-1.06,13.2,6.65-.4a2.83,2.83,0,0,1,2,.72,2.79,2.79,0,0,1,.93,1.95l.41,8.27,10.71-.81,6.08-.14Z"/><path class="cls-1" d="M602.66,42.29a6.23,6.23,0,0,0-5.33-.67L580.57,49.8c0,2.63-.22,7.55,4.24,11.33,5.59,4.75,9.81,4.21,12.77,4.52l7.2-17.7a2.61,2.61,0,0,0,.16-1.11A5.7,5.7,0,0,0,602.66,42.29Zm-2.16,7.88a1.43,1.43,0,0,1-1.42-1.43,1.47,1.47,0,0,0-.68-1.19c-.64-.37-2.75-.86-8.59,2.44a1.53,1.53,0,0,1-.71.18,1.42,1.42,0,0,1-1.25-.73,1.44,1.44,0,0,1,.54-2c5.36-3,9.13-3.81,11.5-2.4A4.38,4.38,0,0,1,602,48.75,1.58,1.58,0,0,1,600.5,50.17Z"/><path class="cls-1" d="M655.05,162.34c-4.27-1.71-12.61-5.13-17.73-7.05-8.55-3.21-18.6-6.2-18.6-15,0-8.55,6-14.32,16.46-14.32,15.81,0,32.91,13,32.91,13L684.75,107C673,99.3,653.56,89.47,632.4,89.47c-22.19,0-43.21,11.37-51.94,31.28a92.13,92.13,0,0,1,19.73,57.45c0,2.1-.09,4.18-.22,6.25a75.14,75.14,0,0,0,8.29,4.38c7,3.21,19.23,7.91,24.36,9.84,16,6,17.09,9.18,17.09,16,0,8.76-11.75,12.82-23.72,12.82-12.79,0-25.13-5.88-33.53-11.89a88.36,88.36,0,0,1-21.07,29.79c16.74,10.45,32.81,19.71,55.45,19.71,32.91,0,65.39-18.37,65.39-53.42C692.23,187.13,679.62,172.17,655.05,162.34Z"/><path class="cls-1" d="M695.54,110.72a8.69,8.69,0,1,0,8.74,8.68A8.71,8.71,0,0,0,695.54,110.72Zm0,16.58a7.9,7.9,0,1,1,8-7.9A7.93,7.93,0,0,1,695.54,127.3Zm3.37-4.41v-1a2.62,2.62,0,0,0-.42-1.52,2.25,2.25,0,0,0-1.36-.84,2.63,2.63,0,0,0,1.32-.93,2.37,2.37,0,0,0,.47-1.44,2.54,2.54,0,0,0-.87-2.08,3.93,3.93,0,0,0-2.51-.71H692.1v10.1h.83V120h2.85a2.42,2.42,0,0,1,1.68.54,1.85,1.85,0,0,1,.61,1.47v.92a4.17,4.17,0,0,0,.1.94,1.35,1.35,0,0,0,.37.7h.85v-.17a1.23,1.23,0,0,1-.37-.61A2.78,2.78,0,0,1,698.91,122.89Zm-3.47-3.64h-2.51v-4.12h2.61a2.88,2.88,0,0,1,1.91.54,1.91,1.91,0,0,1,.63,1.54,1.87,1.87,0,0,1-.63,1.48A3,3,0,0,1,695.44,119.25Z"/></g></g></svg>