<svg xmlns="http://www.w3.org/2000/svg" viewBox="0 0 153.67 49.81"><defs><style>.cls-1{fill:#fff;}</style></defs><title>logo bogotáRecurso 1</title><g id="Capa_2" data-name="Capa 2"><g id="Capa_1-2" data-name="Capa 1"><path class="cls-1" d="M3.65,43.88,2.2,40.24H1.42L0,43.88H.78l.3-.83H2.54l.31.83ZM1.31,42.43l.49-1.34.5,1.34Z"/><polygon class="cls-1" points="6.4 43.26 4.58 43.26 4.58 40.27 3.85 40.27 3.85 43.88 6.4 43.88 6.4 43.26"/><path class="cls-1" d="M8.56,43.12a.72.72,0,0,1-.51.19A.81.81,0,0,1,7.41,43a1.5,1.5,0,0,1-.25-1,1.39,1.39,0,0,1,.25-.94.85.85,0,0,1,.66-.29.79.79,0,0,1,.5.16.86.86,0,0,1,.27.45l.73-.17a1.54,1.54,0,0,0-.38-.67,1.49,1.49,0,0,0-1.08-.4,1.65,1.65,0,0,0-1.24.5,2,2,0,0,0-.47,1.41,1.9,1.9,0,0,0,.47,1.35,1.57,1.57,0,0,0,1.19.5,1.6,1.6,0,0,0,1-.29,1.65,1.65,0,0,0,.54-.89l-.71-.23a1.06,1.06,0,0,1-.3.59"/><path class="cls-1" d="M10.65,43.05h1.46l.31.83h.8l-1.45-3.64H11L9.57,43.88h.78Zm.72-2,.5,1.34h-1Z"/><polygon class="cls-1" points="16.05 43.26 14.22 43.26 14.22 40.27 13.49 40.27 13.49 43.88 16.05 43.88 16.05 43.26"/><path class="cls-1" d="M18.38,40.31a2.5,2.5,0,0,0-.7-.07H16.34v3.64h1.38a2.25,2.25,0,0,0,.65-.08,1.36,1.36,0,0,0,.52-.29,1.58,1.58,0,0,0,.39-.64,2.57,2.57,0,0,0,.11-.78,2.7,2.7,0,0,0-.12-.86,1.48,1.48,0,0,0-.35-.58,1.19,1.19,0,0,0-.54-.34m.18,2.42a.82.82,0,0,1-.19.35.6.6,0,0,1-.3.14,1.59,1.59,0,0,1-.44,0h-.55v-2.4h.33a3.77,3.77,0,0,1,.6,0,.73.73,0,0,1,.34.17.93.93,0,0,1,.21.35,2.25,2.25,0,0,1,.07.65,2.45,2.45,0,0,1-.07.67"/><polygon class="cls-1" points="20.24 39.17 19.9 39.91 20.35 39.91 21.02 39.17 20.24 39.17"/><rect class="cls-1" x="19.72" y="40.24" width="0.73" height="3.63"/><path class="cls-1" d="M22.21,40.24,20.8,43.88h.78l.3-.83h1.45l.32.83h.8L23,40.24Zm-.11,2.19.49-1.34.51,1.34Z"/><polygon class="cls-1" points="29.67 40.24 28.57 40.24 27.92 42.72 27.26 40.24 26.16 40.24 26.16 43.88 26.84 43.88 26.84 41.02 27.56 43.88 28.27 43.88 28.99 41.02 28.99 43.88 29.67 43.88 29.67 40.24"/><path class="cls-1" d="M33.59,43.88l-1.45-3.64h-.79l-1.41,3.64h.78l.3-.83h1.45l.32.83Zm-2.35-1.45.5-1.34.5,1.34Z"/><polygon class="cls-1" points="32.69 40.24 34.02 42.35 34.02 43.88 34.76 43.88 34.76 42.35 36.09 40.24 35.24 40.24 34.41 41.68 33.55 40.24 32.69 40.24"/><path class="cls-1" d="M35.78,42.08a1.9,1.9,0,0,0,.47,1.36,1.74,1.74,0,0,0,1.3.5,1.71,1.71,0,0,0,1.28-.5,1.94,1.94,0,0,0,.47-1.38,1.9,1.9,0,0,0-.48-1.38,1.71,1.71,0,0,0-1.28-.5,2.14,2.14,0,0,0-.79.14,1.49,1.49,0,0,0-.47.33,1.92,1.92,0,0,0-.34.5,2.5,2.5,0,0,0-.16.93m1-1a.94.94,0,0,1,.74-.31.91.91,0,0,1,.72.31,1.31,1.31,0,0,1,.28.93,1.36,1.36,0,0,1-.29.94.87.87,0,0,1-.71.32.91.91,0,0,1-.73-.32,1.34,1.34,0,0,1-.28-.93,1.41,1.41,0,0,1,.27-.94"/><path class="cls-1" d="M42.38,43.17a4.29,4.29,0,0,0-.42-.59,1.83,1.83,0,0,0-.39-.31,1.18,1.18,0,0,0,.72-.33,1.11,1.11,0,0,0,.07-1.25.76.76,0,0,0-.42-.35,2.5,2.5,0,0,0-.85-.1H39.55v3.64h.74V42.36h.15a1.18,1.18,0,0,1,.37,0,.62.62,0,0,1,.22.15c.06.08.2.25.39.54l.52.79h.88Zm-1.55-1.39h-.54v-.92h1.1a.41.41,0,0,1,.38.44.46.46,0,0,1-.08.27.4.4,0,0,1-.2.16,3.74,3.74,0,0,1-.66,0"/><rect class="cls-1" x="35.5" y="49.07" width="0.68" height="0.69"/><path class="cls-1" d="M5.13,46.57a1.17,1.17,0,0,0-.54-.33,2.39,2.39,0,0,0-.68-.07H2.59v3.58H4a2.17,2.17,0,0,0,.64-.08,1.27,1.27,0,0,0,.51-.29,1.63,1.63,0,0,0,.38-.63A2.39,2.39,0,0,0,5.59,48a2.57,2.57,0,0,0-.12-.84,1.59,1.59,0,0,0-.34-.58m-.36,2a.76.76,0,0,1-.19.35.53.53,0,0,1-.29.14,1.54,1.54,0,0,1-.44,0H3.31V46.78h.33a3.71,3.71,0,0,1,.59,0,.73.73,0,0,1,.34.17.79.79,0,0,1,.2.35,2,2,0,0,1,.08.63,2.25,2.25,0,0,1-.08.65"/><polygon class="cls-1" points="6.55 48.17 8.34 48.17 8.34 47.57 6.55 47.57 6.55 46.78 8.48 46.78 8.48 46.17 5.83 46.17 5.83 49.74 8.55 49.74 8.55 49.14 6.55 49.14 6.55 48.17"/><path class="cls-1" d="M12.61,47.84a.83.83,0,0,0,.36-.31.82.82,0,0,0,.13-.46.87.87,0,0,0-.1-.42,1,1,0,0,0-.28-.29.81.81,0,0,0-.37-.15,3.34,3.34,0,0,0-.63,0H10.29v3.57h1.22c.45,0,.75,0,.87,0a1,1,0,0,0,.48-.17,1,1,0,0,0,.31-.37,1.12,1.12,0,0,0,.11-.47.89.89,0,0,0-.17-.54,1,1,0,0,0-.5-.33M11,46.77h1a.38.38,0,0,1,.27.12.4.4,0,0,1,.09.27.37.37,0,0,1-.1.28.46.46,0,0,1-.29.13H11ZM12.44,49a.51.51,0,0,1-.26.14,4.51,4.51,0,0,1-.5,0H11v-1h.59a2.94,2.94,0,0,1,.64,0,.47.47,0,0,1,.22.17.46.46,0,0,1,.08.27.45.45,0,0,1-.1.31"/><path class="cls-1" d="M15.26,46.11a2,2,0,0,0-.77.14,1.42,1.42,0,0,0-.46.32,1.76,1.76,0,0,0-.33.49,2.3,2.3,0,0,0-.16.92A1.81,1.81,0,0,0,14,49.32a1.68,1.68,0,0,0,1.26.49,1.65,1.65,0,0,0,1.26-.5A1.86,1.86,0,0,0,17,48a1.9,1.9,0,0,0-.47-1.36,1.68,1.68,0,0,0-1.27-.49M16,48.88a.94.94,0,0,1-.71.31.91.91,0,0,1-.71-.32,1.31,1.31,0,0,1-.28-.91,1.38,1.38,0,0,1,.27-.93A1,1,0,0,1,16,47a1.69,1.69,0,0,1,0,1.85"/><path class="cls-1" d="M19.11,48.44h.82v.45a1.59,1.59,0,0,1-.39.21,1.2,1.2,0,0,1-.45.09,1,1,0,0,1-.74-.32,1.38,1.38,0,0,1-.28-.95,1.24,1.24,0,0,1,.28-.89,1,1,0,0,1,.75-.3.86.86,0,0,1,.52.15.73.73,0,0,1,.28.42l.72-.14a1.23,1.23,0,0,0-.48-.77,1.69,1.69,0,0,0-1-.28,1.86,1.86,0,0,0-.86.18,1.52,1.52,0,0,0-.68.67,2,2,0,0,0-.24,1,2.35,2.35,0,0,0,.21.95,1.51,1.51,0,0,0,.63.67,1.92,1.92,0,0,0,1,.24,2.45,2.45,0,0,0,.87-.17,1.8,1.8,0,0,0,.65-.39V47.83H19.11Z"/><path class="cls-1" d="M22.7,46.11a2.07,2.07,0,0,0-.77.14,1.42,1.42,0,0,0-.46.32,1.76,1.76,0,0,0-.33.49A2.29,2.29,0,0,0,21,48a1.85,1.85,0,0,0,.47,1.34,1.72,1.72,0,0,0,1.27.49,1.65,1.65,0,0,0,1.26-.5A1.86,1.86,0,0,0,24.44,48,1.9,1.9,0,0,0,24,46.6a1.7,1.7,0,0,0-1.27-.49m.72,2.77a.94.94,0,0,1-.71.31.91.91,0,0,1-.71-.32,1.31,1.31,0,0,1-.28-.91A1.38,1.38,0,0,1,22,47a1,1,0,0,1,1.44,0,1.69,1.69,0,0,1,0,1.85"/><polygon class="cls-1" points="27.29 46.17 24.45 46.17 24.45 46.78 25.51 46.78 25.51 49.74 26.23 49.74 26.23 46.78 27.29 46.78 27.29 46.17"/><path class="cls-1" d="M28.32,46.17l-1.39,3.58h.77l.3-.82h1.42l.31.82h.79l-1.43-3.58Zm-.1,2.15L28.7,47l.49,1.32Z"/><polygon class="cls-1" points="28.45 45.84 28.88 45.84 29.55 45.12 28.78 45.12 28.45 45.84"/><path class="cls-1" d="M35,46.57a1.17,1.17,0,0,0-.54-.33,2.35,2.35,0,0,0-.68-.07H32.5v3.58h1.36a2.17,2.17,0,0,0,.64-.08,1.27,1.27,0,0,0,.51-.29,1.63,1.63,0,0,0,.38-.63A2.39,2.39,0,0,0,35.5,48a2.57,2.57,0,0,0-.12-.84,1.46,1.46,0,0,0-.34-.58m-.36,2a.76.76,0,0,1-.19.35.53.53,0,0,1-.29.14,1.51,1.51,0,0,1-.43,0h-.54V46.78h.32a3.71,3.71,0,0,1,.59,0,.73.73,0,0,1,.34.17.79.79,0,0,1,.2.35,2,2,0,0,1,.07.63,2.3,2.3,0,0,1-.07.65"/><path class="cls-1" d="M38.36,49a.71.71,0,0,1-.49.19.79.79,0,0,1-.63-.29,1.44,1.44,0,0,1-.25-1,1.38,1.38,0,0,1,.25-.93.81.81,0,0,1,.65-.28.73.73,0,0,1,.48.16.77.77,0,0,1,.27.44l.71-.17A1.39,1.39,0,0,0,39,46.5a1.5,1.5,0,0,0-1.07-.39,1.57,1.57,0,0,0-1.21.5A1.9,1.9,0,0,0,36.25,48a1.84,1.84,0,0,0,.46,1.33,1.7,1.7,0,0,0,2.12.2,1.64,1.64,0,0,0,.53-.87l-.7-.23a1,1,0,0,1-.3.58"/><rect class="cls-1" x="39.47" y="49.08" width="0.69" height="0.68"/><path class="cls-1" d="M18.42,11.23c.62,0,1.11-.28,1.14-.59S19,10,18.39,10s-.94.35-.94.63.32.6,1,.56"/><path class="cls-1" d="M12.14,30.36c-.35-.5-.87-.75-1.13-.59s-.26.72.09,1.22.79.63,1,.47.33-.59,0-1.1"/><path class="cls-1" d="M25.31,10.67c0-.28-.32-.59-.94-.63s-1.17.32-1.17.6.52.56,1.14.59,1-.25,1-.56"/><path class="cls-1" d="M20,33.43c-.65-.09-1.21.07-1.27.35s.36.69,1,.82,1-.1,1.11-.41-.2-.63-.81-.76"/><path class="cls-1" d="M32.4,21.86c0-.63-.23-1.13-.52-1.16s-.68.44-.72,1.07.26.94.55,1,.66-.28.69-.88"/><path class="cls-1" d="M11.64,21.77c0-.63-.39-1.1-.72-1.07s-.52.53-.48,1.16.35.91.64.88.59-.38.56-1"/><path class="cls-1" d="M32,13.52c.29,0,.58-.37.55-1s-.39-1.1-.72-1.06-.55.53-.52,1.16.36.91.69.87"/><path class="cls-1" d="M30.66,30.36c-.35.51-.29.94,0,1.1s.69,0,1-.47.36-1.07.1-1.22-.78.09-1.14.59"/><path class="cls-1" d="M10.78,13.52c.29,0,.62-.28.65-.87s-.19-1.13-.49-1.16-.68.44-.71,1.06.23.94.55,1"/><path class="cls-1" d="M28.71,23.3c-.1,0-.49.38-.49.38-.1-.31-.59-.31-.59-.31v.12c.33,0,.39.47.29.63s.33.31.4.22a.46.46,0,0,1,.71,0l.07-.07s-.16-.43-.49-.37c0,0,.2-.53.1-.6"/><path class="cls-1" d="M28,24.31a1.42,1.42,0,0,0-1.95.22,1.32,1.32,0,0,0,.59,1.74c-.49,0-1.11-.61-1.11-.61-.27.5.23.78.61.92l-.14.13c-.37-.09-.51.07-.51.07s-.88-.9-1.48-1.52l.53-.11c-.39-.9-1.44-1.1-2.15-1.64-.54-.41.06-.59.2-.46a2.15,2.15,0,0,0,2.54.35A2.74,2.74,0,0,1,23.75,22a3,3,0,0,0,3.45-.16,2.79,2.79,0,0,1-2.31-1A3.89,3.89,0,0,0,28.3,20a9.2,9.2,0,0,1-2.6-.72c3-.09,3.22-2.2,3.26-2.2-.82.54-3,.28-3,.28,3.09-1.09,2.87-3.63,2.87-3.63-.66,1-3.64,1.91-3.64,1.91a2,2,0,0,0-1.47,1.82.72.72,0,0,1-.71.63c-.8,0-.79-1.15-.79-1.7,0-.81,0-1.75-.61-1.75H20.44c-.21,0-.58,0-.73.16-.3.35-.26,1.28-.12,1.09a1.46,1.46,0,0,1,.75,0c.38.11.1,1.28.1,1.54a.72.72,0,0,1-1.43,0,2,2,0,0,0-1.44-1.82s-3.05-.94-3.7-1.91c0,0-.23,2.57,2.89,3.7,0,0-2.21.19-3-.35,0,0,.42,2.2,3.38,2.29a10.1,10.1,0,0,1-2.67.57,3.79,3.79,0,0,0,3.48,1.13,3.3,3.3,0,0,1-2.44.81,3,3,0,0,0,3.45.22,2.56,2.56,0,0,1-1.37,1.32,2.19,2.19,0,0,0,2.57-.35c.18-.19.73,0,.18.46-.75.57-1.81.7-2.26,1.64l.55.11c-.62.62-1.44,1.5-1.52,1.52s-.13-.16-.47-.09l-.14-.11c.39-.13.89-.42.62-.93,0,0-.63.66-1.11.62a1.32,1.32,0,0,0,.59-1.74,1.42,1.42,0,0,0-1.95-.22A1.36,1.36,0,0,0,14,26.12a1.35,1.35,0,0,0,1.84.26,2,2,0,0,1-1.1.65s.4.78,1.29-.25l.15.12c-.24.19-.34.5-.15.64,0,0-.09.5.49.47a.47.47,0,0,0,.61.13,7.48,7.48,0,0,1,.25,1.72l.75,0a5.74,5.74,0,0,0-.7-2.33c.12-.1.19-.24.07-.37A21.36,21.36,0,0,1,19.33,26l.1.5a2.12,2.12,0,0,1,1.13-.75A3.11,3.11,0,0,0,20,28.26s.13-.41.78-.47c0,0-.91,1.1.55,3.23,1.46-2.13.62-3.23.62-3.23a.9.9,0,0,1,.81.47,3.16,3.16,0,0,0-.65-2.53,2.11,2.11,0,0,1,1.14.77l.1-.52a22,22,0,0,1,1.85,1.21c-.12.14,0,.28.08.38a5.77,5.77,0,0,0-.69,2.32l.75,0a7.87,7.87,0,0,1,.24-1.71.5.5,0,0,0,.6-.14c.58,0,.48-.47.48-.47.19-.13.1-.43-.14-.62l.17-.14c.88,1,1.28.25,1.28.25a2,2,0,0,1-1.09-.65A1.22,1.22,0,1,0,28,24.31m-13.3,1.41c-.35-.57-.35-1.19-.06-1.35s.84.12,1.2.69.3,1,0,1.16-.75.06-1.14-.5m6.14-10.16a.3.3,0,0,1-.33-.28.31.31,0,0,1,.33-.32.3.3,0,0,1,.29.32.29.29,0,0,1-.29.28m7.06,10.16c-.38.56-.84.69-1.13.5s-.39-.63,0-1.16.91-.85,1.2-.69.29.78-.07,1.35"/><path class="cls-1" d="M14.33,24.34c.07.09.43-.13.39-.22s0-.6.3-.63v-.12s-.49,0-.59.31c0,0-.39-.41-.49-.38s.1.6.1.6c-.32-.06-.49.37-.49.37l.07.07a.46.46,0,0,1,.71,0"/><path class="cls-1" d="M24.35,27.69a1.48,1.48,0,0,0-1-.44,1.37,1.37,0,0,0,.36,1.07,1.28,1.28,0,0,0,1,.47,1.59,1.59,0,0,0-.36-1.1"/><path class="cls-1" d="M17.94,28.79a1.28,1.28,0,0,0,1-.47,1.37,1.37,0,0,0,.36-1.07,1.46,1.46,0,0,0-1,.44,1.59,1.59,0,0,0-.36,1.1"/><polygon class="cls-1" points="22.03 14.34 22.68 13.33 21.67 13.71 21.31 12.8 20.92 13.71 19.88 13.33 20.57 14.34 22.03 14.34"/><path class="cls-1" d="M21.32,7.23a13.79,13.79,0,0,1-12.77,0V30.1a5.08,5.08,0,0,0,5.17,5A13.26,13.26,0,0,1,21.32,37a13.45,13.45,0,0,1,7.58-1.91,5.11,5.11,0,0,0,5.2-5V7.2a13.84,13.84,0,0,1-12.78,0M31.6,10.8s.07-.51.17-.51.26.48.26.48c.19-.19.58,0,.58,0l0,.09a.39.39,0,0,0-.52.35c0,.09-.42.12-.42,0a.46.46,0,0,0-.59-.32l0-.06s.32-.28.58-.09m.26.66a1.32,1.32,0,0,1,1.53,1A1.26,1.26,0,0,1,32.2,13.6a2,2,0,0,0,1.16-.08s.09.73-1,.49c0,.59-.33,1-.47,1.61a1.24,1.24,0,0,1,.33-.31,1.6,1.6,0,0,1,1.07-.19,1.14,1.14,0,0,1-.52.79,1.48,1.48,0,0,1-.93.24,2.61,2.61,0,0,0,.28,1l-.52.41A3.15,3.15,0,0,1,31.63,15c.27-.56.32-.77.29-1-.36.13-1.06.3-1.16-.31a2.06,2.06,0,0,0,1.16-.12,1.34,1.34,0,0,1-1.39-1,1.25,1.25,0,0,1,1.33-1.15m.87,8.62,0,.09a.45.45,0,0,0-.59.31c0,.1-.42.07-.42,0a.4.4,0,0,0-.52-.35l0-.09s.39-.22.58,0c0,0,.17-.5.26-.47s.17.5.17.5c.26-.19.59.07.59.07M24.34,9.29a1.19,1.19,0,0,1,1.07,1.28,1.75,1.75,0,0,0,0-1.15s.75,0,.46,1c.58,0,1,.4,1.56.58a1.28,1.28,0,0,1-.26-.34,1.25,1.25,0,0,1-.13-1,1.09,1.09,0,0,1,.78.56,1.34,1.34,0,0,1,.16.9,2.57,2.57,0,0,0,1-.18l.39.54a3.7,3.7,0,0,1-2.57-.29,2.27,2.27,0,0,0-1-.36c.08.34.19,1.06-.41,1.08,0,0,.2-.79-.06-1.15A1.25,1.25,0,0,1,24.24,12a1.22,1.22,0,0,1-1.07-1.38,1.26,1.26,0,0,1,1.17-1.35m-1.79.6.1,0c-.17.28.16.53.32.53s.1.38,0,.38a.45.45,0,0,0-.39.56h-.1s-.22-.34,0-.56c0,0-.52-.1-.52-.19s.55-.19.55-.19c-.19-.22.07-.56.07-.56m-2.76.56c.16,0,.48-.25.32-.53l.1,0s.26.34.06.56c0,0,.55.09.55.19s-.51.19-.51.19c.19.22,0,.56,0,.56h-.09a.46.46,0,0,0-.39-.56c-.1,0-.1-.38,0-.38m-6,.47a2.52,2.52,0,0,0,1,.18,1.35,1.35,0,0,1,.17-.9,1.07,1.07,0,0,1,.78-.56A1.42,1.42,0,0,1,15.3,11c.56-.18,1-.56,1.56-.58-.29-1,.45-1,.45-1a1.76,1.76,0,0,0,0,1.15,1.19,1.19,0,0,1,1.07-1.28,1.26,1.26,0,0,1,1.17,1.35A1.23,1.23,0,0,1,18.52,12a1.25,1.25,0,0,1-1.17-1.28c-.26.36-.07,1.15-.07,1.15-.6,0-.49-.74-.4-1.08a2.3,2.3,0,0,0-1,.36,3.67,3.67,0,0,1-2.56.29Zm-3-.15s.16-.51.26-.48.16.51.16.51c.27-.19.59.09.59.09l0,.06a.46.46,0,0,0-.59.32c0,.09-.42.06-.42,0a.4.4,0,0,0-.52-.35l0-.09s.39-.22.58,0m.16.68a1.28,1.28,0,0,1,1.34,1.16,1.34,1.34,0,0,1-1.4,1,2.09,2.09,0,0,0,1.17.12c-.1.61-.81.44-1.16.31,0,.21,0,.42.28,1a3.29,3.29,0,0,1,.07,2.48l-.52-.41a2.52,2.52,0,0,0,.26-1,1.49,1.49,0,0,1-.91-.24,1,1,0,0,1-.52-.79,1.62,1.62,0,0,1,1.07.19,1.48,1.48,0,0,1,.29.26c-.15-.56-.5-1-.44-1.55-1.11.23-1-.5-1-.5a2,2,0,0,0,1.16.08,1.26,1.26,0,0,1-1.19-1.17,1.33,1.33,0,0,1,1.52-1M11.67,20l0,.09a.4.4,0,0,0-.53.35c0,.1-.38.13-.41,0a.45.45,0,0,0-.59-.31l0-.09s.32-.26.58-.07c0,0,.07-.5.16-.5s.26.47.26.47c.2-.19.59,0,.59,0M9.26,23.65a1.23,1.23,0,0,1,1,.35.81.81,0,0,1,.33.55,2.08,2.08,0,0,1,.13-.3,1.78,1.78,0,0,0,.28-1c-.36.13-1.07.31-1.16-.3,0,0,.85.14,1.2-.15a1.31,1.31,0,0,1-1.43-1,1.29,1.29,0,0,1,1.33-1.19,1.39,1.39,0,0,1,1.53,1A1.24,1.24,0,0,1,11.2,22.8a2,2,0,0,0,1.22-.06s.08.72-1,.49c.09,1-1,1.53-.25,3.09l-.52.4a3.2,3.2,0,0,1-.14-1.88,1.28,1.28,0,0,1-.93-.34.92.92,0,0,1-.3-.85m.77,6L10,29.61s.16-.41.48-.35c0,0-.22-.46-.13-.53s.46.31.46.31c.1-.28.52-.28.52-.28l0,.1a.42.42,0,0,0-.29.59c.06.07-.29.29-.33.22a.44.44,0,0,0-.68,0m4.32,4.67a2.28,2.28,0,0,0-.37-.9,1.7,1.7,0,0,1-.86.34,1.12,1.12,0,0,1-.94-.35,1.35,1.35,0,0,1,1-.43,1.2,1.2,0,0,1,.43,0c-.47-.36-1-.5-1.36-1-.74.81-1.12.17-1.12.17a1.75,1.75,0,0,0,1-.66,1.27,1.27,0,0,1-1.74-.18A1.26,1.26,0,0,1,11,29.7a1.33,1.33,0,0,1,1.79.16,1.18,1.18,0,0,1-.51,1.61c.46,0,1.07-.54,1.07-.54.29.52-.4.79-.75.89.11.19.29.33.84.61a3.38,3.38,0,0,1,1.63,2Zm4.12-.43a.43.43,0,0,0-.49.47h-.09s-.17-.38.09-.57c0,0-.52-.22-.49-.31s.56-.07.56-.07c-.16-.28.16-.56.16-.56l.1.06a.4.4,0,0,0,.22.6c.1,0,0,.41-.06.38m6,.84a2.54,2.54,0,0,0-.94-.38,1.32,1.32,0,0,1-1.27,1.23,1.68,1.68,0,0,1,.36-1,1.56,1.56,0,0,1,.34-.23,5.77,5.77,0,0,1-1.68.23c.07,1.07-.67.85-.67.85a1.8,1.8,0,0,0,.24-1.11,1.22,1.22,0,0,1-1.35,1,1.32,1.32,0,0,1-.85-1.57,1.3,1.3,0,0,1,1.4-1.13,1.26,1.26,0,0,1,.84,1.48c.33-.29.3-1.07.3-1.07.61.16.34.8.17,1.12a2,2,0,0,0,1-.12,3.71,3.71,0,0,1,2.6.25ZM21.3,32.31a8.82,8.82,0,0,0-5.07-1.23,3.27,3.27,0,0,1-3.33-3.32V12.36c2,1.1,6.55.36,8.52-.66,2,1,6.43,1.74,8.51.66l0,15.4a3.47,3.47,0,0,1-3.56,3.32,8.84,8.84,0,0,0-5,1.23m11.12-.94a1.3,1.3,0,0,1-1.72.21,1.79,1.79,0,0,0,1,.63s-.37.64-1.11-.17c-.34.49-.89.63-1.36,1a1.2,1.2,0,0,1,.43,0,1.43,1.43,0,0,1,1,.43,1.16,1.16,0,0,1-.94.35,1.57,1.57,0,0,1-.86-.34,2.35,2.35,0,0,0-.37.9l-.69,0a3.38,3.38,0,0,1,1.63-2c.55-.28.73-.42.84-.61-.36-.1-1-.37-.75-.89,0,0,.59.56,1,.54a1.18,1.18,0,0,1-.48-1.61,1.33,1.33,0,0,1,1.79-.16,1.26,1.26,0,0,1,.58,1.67m.33-1.7c-.16-.28-.55-.15-.65,0s-.4-.15-.36-.22a.41.41,0,0,0-.26-.59l0-.1s.42,0,.52.28c0,0,.36-.37.46-.31s-.14.53-.14.53c.33-.06.49.35.49.35Zm.49-5.17a1.3,1.3,0,0,1-.92.34,3.19,3.19,0,0,1-.15,1.88l-.52-.4c.78-1.56-.31-2.11-.24-3.09-1.11.24-1-.49-1-.49a1.83,1.83,0,0,0,1.19.06,1.24,1.24,0,0,1-1.25-1.16,1.38,1.38,0,0,1,1.53-1,1.29,1.29,0,0,1,1.33,1.19,1.31,1.31,0,0,1-1.43,1c.35.29,1.2.15,1.2.15-.1.61-.81.43-1.16.3a1.78,1.78,0,0,0,.28,1,1.51,1.51,0,0,1,.13.29,1,1,0,0,1,.33-.54,1.26,1.26,0,0,1,1-.35,1,1,0,0,1-.33.85"/><path class="cls-1" d="M78.34,27.71a4.28,4.28,0,0,0-4.29-4.26H68.89v13.6H74.5A4.25,4.25,0,0,0,77.7,30a4.2,4.2,0,0,0,.64-2.24m-6-1.3h1.7a1.3,1.3,0,1,1,0,2.6h-1.7Zm2.15,7.68H72.35V31.48H74.5a1.31,1.31,0,1,1,0,2.61"/><path class="cls-1" d="M86.2,23.2a7.11,7.11,0,1,0,6.86,7.11A7,7,0,0,0,86.2,23.2m0,10.52a3.42,3.42,0,1,1,3.17-3.41,3.29,3.29,0,0,1-3.17,3.41"/><path class="cls-1" d="M101.51,32.4h1.61v.74a3.8,3.8,0,0,1-2,.58,3.42,3.42,0,1,1,0-6.82,3.78,3.78,0,0,1,2.54,1l.35.33,2.5-2.72-.36-.33a7.43,7.43,0,0,0-5-1.94,7.11,7.11,0,1,0,0,14.22,7.71,7.71,0,0,0,2-.28v0h3.69V28.71h-5.3Z"/><polygon class="cls-1" points="125.76 27.45 125.76 37.17 130.14 37.17 130.14 27.45 134.28 27.45 134.28 23.27 121.61 23.27 121.61 27.45 125.76 27.45"/><polygon class="cls-1" points="153.67 42.99 145.29 20.7 137.76 20.7 131.61 37.14 136.17 37.14 141.52 23.62 149.11 42.99 153.67 42.99"/><path class="cls-1" d="M120.55,27v0a6.84,6.84,0,0,0-6-3.74,7.11,7.11,0,1,0,6.86,7.11,7.24,7.24,0,0,0-.81-3.35m-6,6.76a3.42,3.42,0,1,1,3.17-3.41,3.29,3.29,0,0,1-3.17,3.41"/><polygon class="cls-1" points="147.21 13.48 151.31 11.8 145.85 9.85 142.34 0.47 138.71 7.37 131.3 5.85 136.53 11.52 133.98 18.37 143.19 15.07 149.91 20.7 147.21 13.48"/><polygon class="cls-1" points="131.89 13.85 133.57 12.77 131.56 12.34 130.98 10.34 130.18 12.05 127.12 11.4 129.51 13.86 128.78 15.85 130.92 14.47 132.58 15.81 131.89 13.85"/><polygon class="cls-1" points="150.07 3.67 151.83 2.54 149.73 2.1 149.12 0 148.1 1.75 145.1 1.11 147.59 3.68 146.83 5.76 149.06 4.32 150.8 5.72 150.07 3.67"/><rect class="cls-1" x="55.41" y="7.08" width="0.79" height="42.61"/></g></g></svg>