<svg xmlns="http://www.w3.org/2000/svg" viewBox="0 0 359.38 359.45"><defs><style>.cls-1{fill:#182642;}</style></defs><title>marcoRecurso 45</title><g id="Capa_2" data-name="Capa 2"><g id="Capa_27" data-name="Capa 27"><path class="cls-1" d="M203.26,359.44H79c-18.26,0-31.07-12.8-31.08-31q0-58.95,0-117.91c0-17.95,12.9-30.78,30.93-30.78H328.49c18,0,30.88,12.85,30.88,30.83q0,59.13,0,118.28c0,17.7-13,30.59-30.74,30.6Zm.3-167.74H80.43c-13.32,0-20.53,7.24-20.53,20.61V326.86c0,13.35,7.22,20.61,20.53,20.61H326.69c13.57,0,20.71-7.18,20.72-20.8V212.5c0-13.64-7.13-20.8-20.72-20.8Z"/><path class="cls-1" d="M0,155.71Q0,93.37,0,31C0,12.79,12.82,0,31.09,0H148.63c18.26,0,31.05,12.78,31.06,31q0,64.22,0,128.43a22.13,22.13,0,0,1-.08,3.36,5.81,5.81,0,0,1-6.13,4.88,5.61,5.61,0,0,1-5.67-4.95,19.29,19.29,0,0,1-.09-3.73V32.86c0-13.83-7.1-20.88-21-20.88H32.53C19.19,12,12,19.2,12,32.58V279c0,12.55,5.91,19.19,18.31,20.6,3.55.4,5.75,2.81,5.64,6.19s-2.48,5.61-6.05,5.77C14.39,312.25.06,298.32,0,282.27q-.11-57.1,0-114.2Z"/><path class="cls-1" d="M217.29,49.44c3.26,4.21,6.11,7.81,8.86,11.47s2.6,7.19-.5,9.49c-2.94,2.19-6.31,1.48-9.06-2Q207.8,57.22,199.09,46c-2.48-3.19-2.09-6.63,1.13-9.17Q211.53,27.91,223,19.17c3.38-2.57,6.63-2.3,8.94.51s1.81,6.4-1.55,9.12c-3.15,2.56-6.37,5-9.77,7.69C277.75,48.57,311.68,83,323.08,140.21c2.39-3.78,4.61-7.34,6.89-10.87s5.75-4.72,8.82-2.8,3.77,5.44,1.49,9.15q-7.35,11.94-14.84,23.77c-2.56,4-5.35,4.83-9.5,2.34-8.32-5-16.51-10.21-24.67-15.48-3.12-2-3.79-5.29-2.11-8.13a5.92,5.92,0,0,1,8.41-2.11c4.3,2.45,8.45,5.16,12.86,7.87C305.93,92.6,261.48,53,217.29,49.44Z"/><path class="cls-1" d="M89.58,35.94c-5.6,0-11.21,0-16.81,0-4.43,0-6.91-2.26-6.87-6.06C66,26.25,68.42,24,72.56,24q17.37-.06,34.74,0c4.08,0,6.54,2.4,6.5,6.05s-2.53,5.87-6.66,5.9C101.29,36,95.43,35.94,89.58,35.94Z"/><path class="cls-1" d="M323.45,269.2c0-5.6,0-11.21,0-16.81,0-4.19,2.19-6.66,5.79-6.76,3.8-.09,6.15,2.42,6.16,6.78q0,17.18,0,34.37c0,4.19-2.2,6.67-5.8,6.76-3.79.1-6.12-2.42-6.15-6.78C323.42,280.91,323.45,275.06,323.45,269.2Z"/></g></g></svg>