<svg xmlns="http://www.w3.org/2000/svg" viewBox="0 0 35.64 37.79"><defs><style>.cls-1{fill:#fff;}</style></defs><title>logo222Recurso 6</title><g id="Capa_2" data-name="Capa 2"><g id="Mesa_con_reproductor_abierto" data-name="Mesa con reproductor abierto"><g id="Reproductor"><path class="cls-1" d="M18.37,37.79a1.74,1.74,0,0,1-1.19-.46,1.51,1.51,0,0,1,0-2.22h0L30.82,22.24a4.55,4.55,0,0,0,0-6.68L17.18,2.7a1.53,1.53,0,0,1,0-2.24,1.76,1.76,0,0,1,2.37,0L33.19,13.32a7.57,7.57,0,0,1,0,11.14h0L19.55,37.33A1.7,1.7,0,0,1,18.37,37.79Z"/><path class="cls-1" d="M1.68,37.79a1.74,1.74,0,0,1-1.19-.46,1.51,1.51,0,0,1,0-2.22h0L16.5,20a1.52,1.52,0,0,0,0-2.23h0L.49,2.7A1.53,1.53,0,0,1,.49.46a1.76,1.76,0,0,1,2.37,0l16,15.1a4.53,4.53,0,0,1,0,6.68l-16,15.09A1.7,1.7,0,0,1,1.68,37.79Z"/></g></g></g></svg>