<svg xmlns="http://www.w3.org/2000/svg" viewBox="0 0 32.91 36.99"><defs><style>.cls-1{fill:#fff;}</style></defs><title>logo222Recurso 7</title><g id="Capa_2" data-name="Capa 2"><g id="Mesa_con_reproductor_abierto" data-name="Mesa con reproductor abierto"><g id="Reproductor"><path class="cls-1" d="M16,37a1.56,1.56,0,0,1-1.1-.45L2.26,24a7.7,7.7,0,0,1,0-10.89v0L14.85.45A1.55,1.55,0,1,1,17,2.64L4.45,15.23a4.62,4.62,0,0,0,0,6.53L17,34.35a1.55,1.55,0,0,1,0,2.18h0A1.54,1.54,0,0,1,16,37Z"/><path class="cls-1" d="M31.36,37a1.56,1.56,0,0,1-1.1-.45L15.5,21.76a4.62,4.62,0,0,1,0-6.53L30.26.45a1.55,1.55,0,1,1,2.19,2.19L17.67,17.4a1.55,1.55,0,0,0,0,2.18h0L32.45,34.35a1.55,1.55,0,0,1,0,2.18h0A1.54,1.54,0,0,1,31.36,37Z"/></g></g></g></svg>