<svg xmlns="http://www.w3.org/2000/svg" viewBox="0 0 36.6 39.76"><defs><style>.cls-1{fill:#fff;}</style></defs><title>logo222Recurso 2</title><g id="Capa_2" data-name="Capa 2"><g id="Mesa_con_reproductor_abierto" data-name="Mesa con reproductor abierto"><g id="Reproductor"><path class="cls-1" d="M34.36,23.79l-1.86-1a13.12,13.12,0,0,0,.29-2.89A15.31,15.31,0,0,0,32.5,17l1.86-1a4.21,4.21,0,0,0,1.69-5.77,4.45,4.45,0,0,0-5.93-1.65l-1.89,1A14.68,14.68,0,0,0,22.66,6.4V4.25a4.36,4.36,0,0,0-8.72,0V6.4A14.72,14.72,0,0,0,8.36,9.57l-1.88-1A4.41,4.41,0,0,0,.55,10.2,4.18,4.18,0,0,0,2.24,16L4.1,17a13.19,13.19,0,0,0-.3,2.89,15.22,15.22,0,0,0,.3,2.89l-1.86,1A4.21,4.21,0,0,0,.55,29.57a4.42,4.42,0,0,0,5.93,1.64l1.88-1a14.59,14.59,0,0,0,5.58,3.17v2.16a4.36,4.36,0,0,0,8.72,0V33.36a14.55,14.55,0,0,0,5.57-3.17l1.89,1h0a4.42,4.42,0,0,0,5.93-1.64A4.19,4.19,0,0,0,34.36,23.79ZM18.3,25.57a5.66,5.66,0,1,1,5.81-5.66A5.75,5.75,0,0,1,18.3,25.57Z"/></g></g></g></svg>