<svg xmlns="http://www.w3.org/2000/svg" viewBox="0 0 37.09 37.89"><defs><style>.cls-1{fill:#fff;}</style></defs><title>logo222Recurso 5</title><g id="Capa_2" data-name="Capa 2"><g id="Mesa_con_reproductor_abierto" data-name="Mesa con reproductor abierto"><g id="Reproductor"><path class="cls-1" d="M18.36,3.23A15.07,15.07,0,0,1,29.3,8.07H24.5A1.57,1.57,0,0,0,23,9.68h0A1.58,1.58,0,0,0,24.5,11.3h6.37a2.93,2.93,0,0,0,2.85-3V1.61A1.58,1.58,0,0,0,32.18,0h0a1.57,1.57,0,0,0-1.53,1.61V5a17.78,17.78,0,0,0-26,1.43A19.81,19.81,0,0,0,0,17.59,1.6,1.6,0,0,0,1.4,19.36h.14A1.54,1.54,0,0,0,3.06,18C3.77,9.62,10.4,3.24,18.36,3.23Z"/><path class="cls-1" d="M35.55,18.53A1.53,1.53,0,0,0,34,20c-.74,8.86-8.17,15.43-16.61,14.66a15,15,0,0,1-9.63-4.79h4.79a1.58,1.58,0,0,0,1.54-1.61h0a1.58,1.58,0,0,0-1.54-1.61H6.22a2.93,2.93,0,0,0-2.85,3h0v6.69a1.58,1.58,0,0,0,1.54,1.61h0a1.57,1.57,0,0,0,1.53-1.61V32.93a17.8,17.8,0,0,0,26-1.43,19.84,19.84,0,0,0,4.65-11.2,1.6,1.6,0,0,0-1.4-1.76h-.13Z"/></g></g></g></svg>