<svg xmlns="http://www.w3.org/2000/svg" viewBox="0 0 39.86 39.86"><defs><style>.cls-1{fill:#fff;}</style></defs><title>logo222Recurso 3</title><g id="Capa_2" data-name="Capa 2"><g id="Mesa_con_reproductor_abierto" data-name="Mesa con reproductor abierto"><g id="Reproductor"><path class="cls-1" d="M34.88,6.64h-5V3.32A3.32,3.32,0,0,0,26.58,0H13.29A3.32,3.32,0,0,0,10,3.32V6.64H5a5,5,0,0,0-5,5V39.86H39.86V11.63A5,5,0,0,0,34.88,6.64ZM13.29,3.32H26.58V6.64H13.29ZM36.54,36.54H29.9V13.29H26.58V36.54H13.29V13.29H10V36.54H3.32V11.63A1.66,1.66,0,0,1,5,10h29.9a1.66,1.66,0,0,1,1.66,1.66Z"/></g></g></g></svg>