<svg xmlns="http://www.w3.org/2000/svg" viewBox="0 0 57.36 57.36"><defs><style>.cls-1{fill:#182642;}.cls-2{fill:#fff;}</style></defs><title>logo22Recurso 41</title><g id="Capa_2" data-name="Capa 2"><g id="Capa_28" data-name="Capa 28"><circle class="cls-1" cx="28.68" cy="28.68" r="28.68"/><path class="cls-2" d="M26.22,45.32a1.38,1.38,0,0,1-1-.4L13.91,33.59a6.93,6.93,0,0,1,0-9.81h0L25.24,12.44a1.39,1.39,0,1,1,2,2L15.88,25.74a4.15,4.15,0,0,0,0,5.88L27.21,43a1.4,1.4,0,0,1,0,2h0A1.4,1.4,0,0,1,26.22,45.32Z"/><path class="cls-2" d="M40.09,45.32a1.38,1.38,0,0,1-1-.4L25.82,31.62a4.16,4.16,0,0,1,0-5.88l13.29-13.3a1.39,1.39,0,0,1,2,2L27.78,27.7a1.38,1.38,0,0,0,0,2h0L41.08,43a1.39,1.39,0,0,1,0,2h0A1.42,1.42,0,0,1,40.09,45.32Z"/></g></g></svg>