<svg xmlns="http://www.w3.org/2000/svg" viewBox="0 0 57.36 57.36"><defs><style>.cls-1{fill:#182642;}.cls-2{fill:#fff;}</style></defs><title>logo22Recurso 40</title><g id="Capa_2" data-name="Capa 2"><g id="Capa_28" data-name="Capa 28"><circle class="cls-1" cx="28.68" cy="28.68" r="28.68"/><path class="cls-2" d="M31.68,45.68a1.47,1.47,0,0,1-1.06-.41,1.35,1.35,0,0,1,0-2h0L42.89,31.68a4.07,4.07,0,0,0,0-6L30.62,14.1a1.36,1.36,0,0,1,0-2,1.56,1.56,0,0,1,2.13,0L45,23.67a6.8,6.8,0,0,1,0,10l0,0L32.75,45.27A1.49,1.49,0,0,1,31.68,45.68Z"/><path class="cls-2" d="M16.66,45.68a1.51,1.51,0,0,1-1.07-.41,1.35,1.35,0,0,1,0-2h0L30,29.69a1.37,1.37,0,0,0,0-2h0L15.59,14.1a1.36,1.36,0,0,1,0-2,1.57,1.57,0,0,1,2.14,0L32.12,25.68a4.07,4.07,0,0,1,0,6L17.73,45.27A1.51,1.51,0,0,1,16.66,45.68Z"/></g></g></svg>