<svg xmlns="http://www.w3.org/2000/svg" viewBox="0 0 60.28 75.02"><defs><style>.cls-1{fill:#fff;}</style></defs><title>logro metaRecurso 42</title><g id="Capa_2" data-name="Capa 2"><g id="Capa_28" data-name="Capa 28"><path class="cls-1" d="M42.8,57.84c-2.94-.56-5.32.55-7.48,2.43-.62.54-1.32,1-2,1.48a5,5,0,0,1-6.38,0c-1.36-1-2.67-2.06-4.1-2.94a6.19,6.19,0,0,0-2.66-.9c-1.75-.15-3.52-.06-5.28-.06a5,5,0,0,1-5.15-3.77c-.51-1.58-1-3.14-1.54-4.72a5.06,5.06,0,0,0-1.87-2.6c-1.39-1-2.77-2-4.15-3A4.9,4.9,0,0,1,.3,37.91c.51-1.6,1-3.2,1.56-4.79a5.1,5.1,0,0,0,0-3.34Q1,27.24.23,24.69A4.8,4.8,0,0,1,2,19.3c1.32-1,2.66-2,4-2.92a5.74,5.74,0,0,0,2.32-3.19c.45-1.49.95-3,1.43-4.43a5,5,0,0,1,5-3.71c1.69,0,3.37,0,5.06,0a5,5,0,0,0,3.11-1c1.36-1,2.73-2,4.1-3a4.83,4.83,0,0,1,6.11,0c1.35,1,2.7,1.93,4,2.91a5.28,5.28,0,0,0,3.26,1.06c1.94,0,3.89-.07,5.82.09a4.54,4.54,0,0,1,4.08,3.33q.81,2.34,1.54,4.72a5.7,5.7,0,0,0,2.33,3.18c1.35.92,2.65,1.9,4,2.87A4.85,4.85,0,0,1,60,24.76c-.48,1.55-1,3.11-1.51,4.64a6,6,0,0,0,0,4.1,54,54,0,0,1,1.63,5.25,4.52,4.52,0,0,1-1.82,4.8c-1.33,1-2.7,2-4.09,3a5.67,5.67,0,0,0-2.32,3.19c-.47,1.53-1,3-1.49,4.57a4.93,4.93,0,0,1-4.91,3.56ZM11.3,31.44A18.84,18.84,0,1,0,30.21,12.62,18.84,18.84,0,0,0,11.3,31.44Z"/><path class="cls-1" d="M8.08,56.29a6.73,6.73,0,0,0,3.49,3.23,12.46,12.46,0,0,0,3.32.66c1.57.11,3.16,0,4.74,0a2.89,2.89,0,0,1,2.48,1c-.09.18-.18.39-.29.58Q18.25,68,14.67,74.15c-.24.42-.49,1-1.06.81a1.8,1.8,0,0,1-.83-1.06c-.64-2.07-1.21-4.17-1.8-6.25-.28-1-.53-1.13-1.5-.89-2.21.55-4.41,1.12-6.63,1.63a1.33,1.33,0,0,1-1.08-.28,1.16,1.16,0,0,1,0-1c2-3.51,4-7,6.05-10.49C7.91,56.5,8,56.43,8.08,56.29Z"/><path class="cls-1" d="M38.13,61.23a3.3,3.3,0,0,1,2.48-1c1.94,0,3.89.05,5.83-.08A6.84,6.84,0,0,0,52,56.67c.06-.1.14-.2.25-.37.15.24.29.42.4.61,1.92,3.32,3.84,6.63,5.73,10a1.51,1.51,0,0,1,.13,1.24c-.18.25-.83.3-1.23.21-2.19-.49-4.37-1-6.55-1.58-.85-.21-1.11-.06-1.35.79-.61,2.08-1.19,4.17-1.79,6.26a3.22,3.22,0,0,1-.34.86c-.37.55-1,.46-1.43-.2-.63-1-1.22-2.11-1.83-3.16C42,68,40.08,64.62,38.13,61.23Z"/><path class="cls-1" d="M35.37,41.09A1.43,1.43,0,0,0,37,39.44c-.22-1.45-.44-2.91-.73-4.36a1.71,1.71,0,0,1,.57-1.73c1-.92,1.88-1.86,2.84-2.76a1.66,1.66,0,0,0,.65-1.85c-.25-.76-.92-.91-1.61-1-1.28-.17-2.56-.38-3.84-.53A1.87,1.87,0,0,1,33.33,26c-.57-1.22-1.2-2.41-1.78-3.62a1.48,1.48,0,0,0-2.82,0C28.14,23.59,27.52,24.79,27,26a1.87,1.87,0,0,1-1.58,1.19c-1.31.15-2.61.36-3.92.54a1.63,1.63,0,0,0-1.54,1,1.61,1.61,0,0,0,.59,1.79c1,.92,1.93,1.89,2.9,2.82A1.72,1.72,0,0,1,24,35.08c-.27,1.37-.44,2.75-.7,4.13a1.48,1.48,0,0,0,.56,1.64,1.54,1.54,0,0,0,1.75,0c1.18-.64,2.39-1.23,3.57-1.89a1.84,1.84,0,0,1,2,0c1.18.65,2.37,1.27,3.57,1.88A7.38,7.38,0,0,0,35.37,41.09Z"/><path class="cls-1" d="M35.37,41.09a7.38,7.38,0,0,1-.68-.29c-1.2-.61-2.39-1.23-3.57-1.88a1.84,1.84,0,0,0-2,0c-1.18.66-2.39,1.25-3.57,1.89a1.54,1.54,0,0,1-1.75,0,1.48,1.48,0,0,1-.56-1.64c.26-1.38.43-2.76.7-4.13a1.72,1.72,0,0,0-.57-1.74c-1-.93-1.91-1.9-2.9-2.82a1.61,1.61,0,0,1-.59-1.79,1.63,1.63,0,0,1,1.54-1c1.31-.18,2.61-.39,3.92-.54A1.87,1.87,0,0,0,27,26c.57-1.22,1.19-2.42,1.78-3.63a1.48,1.48,0,0,1,2.82,0c.58,1.21,1.21,2.4,1.78,3.62a1.87,1.87,0,0,0,1.58,1.19c1.28.15,2.56.36,3.84.53.69.1,1.36.25,1.61,1a1.66,1.66,0,0,1-.65,1.85c-1,.9-1.89,1.84-2.84,2.76a1.71,1.71,0,0,0-.57,1.73c.29,1.45.51,2.91.73,4.36A1.43,1.43,0,0,1,35.37,41.09Z"/></g></g></svg>