<svg xmlns="http://www.w3.org/2000/svg" viewBox="0 0 57.36 57.36"><defs><style>.cls-1{fill:#182642;}.cls-2,.cls-3{fill:#fff;}.cls-3{font-size:26.88px;font-family:LouisGeorgeCafeLight, Louis George Café Light;}</style></defs><title>sonido onRecurso 4</title><g id="Capa_2" data-name="Capa 2"><g id="Capa_1-2" data-name="Capa 1"><g id="Capa_2-2" data-name="Capa 2"><g id="Capa_28" data-name="Capa 28"><circle class="cls-1" cx="28.68" cy="28.68" r="28.68"/></g></g><path class="cls-2" d="M29.82,13.84l-.16.11Q24.52,18,19.37,22.09a.66.66,0,0,0-.2.47c0,4,0,8.05,0,12.08a.74.74,0,0,0,.32.66l8.6,6.78c.57.45,1.13.9,1.74,1.37Zm-19.06,20H17V23.39H10.76Z"/><path class="cls-2" d="M29.82,13.84V43.45c-.61-.47-1.17-.92-1.74-1.37l-8.6-6.78a.74.74,0,0,1-.32-.66c0-4,0-8,0-12.08a.66.66,0,0,1,.2-.47Q24.5,18,29.66,14Z"/><path class="cls-2" d="M10.76,33.88V23.39H17V33.88Z"/><text class="cls-3" transform="translate(30.91 34.83)">x</text></g></g></svg>