<svg xmlns="http://www.w3.org/2000/svg" viewBox="0 0 57.36 57.36"><defs><style>.cls-1{fill:#182642;}.cls-2{fill:#fff;}</style></defs><title>sonido onRecurso 3</title><g id="Capa_2" data-name="Capa 2"><g id="Capa_1-2" data-name="Capa 1"><g id="Capa_2-2" data-name="Capa 2"><g id="Capa_28" data-name="Capa 28"><circle class="cls-1" cx="28.68" cy="28.68" r="28.68"/></g></g><path class="cls-2" d="M29.82,13.84l-.16.11Q24.52,18,19.37,22.09a.66.66,0,0,0-.2.47c0,4,0,8.05,0,12.08a.74.74,0,0,0,.32.66l8.6,6.78c.57.45,1.13.9,1.74,1.37Zm-19.06,20H17V23.39H10.76Zm28.33,2.91a11.47,11.47,0,0,0,0-16.26L37.66,22a9.55,9.55,0,0,1,0,13.36Zm-4.42-4.47,1.47,1.48a7.26,7.26,0,0,0,0-10.27L34.69,25A5.29,5.29,0,0,1,34.67,32.32ZM32,25.71v5.86a3.1,3.1,0,0,0,0-5.86Z"/><path class="cls-2" d="M46.69,29.62c-.09.66-.16,1.32-.28,2a15.55,15.55,0,0,1-4.3,8.16l-1.47-1.49a13.71,13.71,0,0,0,0-19.25l1.51-1.5c.48.57,1,1.16,1.5,1.81a15.38,15.38,0,0,1,3,8,2.84,2.84,0,0,0,.06.31Z"/><path class="cls-2" d="M29.82,13.84V43.45c-.61-.47-1.17-.92-1.74-1.37l-8.6-6.78a.74.74,0,0,1-.32-.66c0-4,0-8,0-12.08a.66.66,0,0,1,.2-.47Q24.5,18,29.66,14Z"/><path class="cls-2" d="M10.76,33.88V23.39H17V33.88Z"/><path class="cls-2" d="M39.09,36.79l-1.45-1.45a9.55,9.55,0,0,0,0-13.36l1.45-1.45A11.47,11.47,0,0,1,39.09,36.79Z"/><path class="cls-2" d="M34.67,32.32a5.29,5.29,0,0,0,0-7.35l1.46-1.44a7.26,7.26,0,0,1,0,10.27Z"/><path class="cls-2" d="M32,25.71a3.1,3.1,0,0,1,0,5.86Z"/></g></g></svg>